<?xml version="1.0" encoding="UTF-8" standalone="no"?>
<!DOCTYPE svg PUBLIC "-//W3C//DTD SVG 1.1//EN" "http://www.w3.org/Graphics/SVG/1.1/DTD/svg11.dtd">
<svg width="100%" height="100%" viewBox="0 0 2022 493" version="1.1" xmlns="http://www.w3.org/2000/svg" xmlns:xlink="http://www.w3.org/1999/xlink" xml:space="preserve" xmlns:serif="http://www.serif.com/" style="fill-rule:evenodd;clip-rule:evenodd;stroke-linejoin:round;stroke-miterlimit:2;">
    <g id="Tavola-da-disegno1" serif:id="Tavola da disegno1" transform="matrix(0.576382,0,0,0.198513,0,0)">
        <rect x="0" y="0" width="3507.874" height="2480.315" style="fill:none;"/>
        <g transform="matrix(1,0,0,1,0,-234.890023)">
            <g transform="matrix(7.334552,0,0,21.295803,-27390.633181,-11876.798578)">
                <path d="M3913.296,645.334L3905.296,631.434L3900.946,631.434L3900.946,645.334L3895.246,645.334L3895.246,610.584L3907.246,610.584C3909.913,610.584 3912.171,611.051 3914.021,611.984C3915.871,612.917 3917.255,614.167 3918.171,615.734C3919.088,617.301 3919.546,619.051 3919.546,620.984C3919.546,623.251 3918.888,625.309 3917.571,627.159C3916.255,629.009 3914.23,630.267 3911.496,630.934L3920.096,645.334L3913.296,645.334ZM3900.946,626.884L3907.246,626.884C3909.38,626.884 3910.988,626.351 3912.071,625.284C3913.155,624.217 3913.696,622.784 3913.696,620.984C3913.696,619.184 3913.163,617.776 3912.096,616.759C3911.03,615.742 3909.413,615.234 3907.246,615.234L3900.946,615.234L3900.946,626.884Z" style="fill-rule:nonzero;"/>
            </g>
            <g transform="matrix(7.334552,0,0,21.295803,-27395.838066,-11876.798578)">
                <path d="M3948.996,617.784L3948.996,645.334L3943.296,645.334L3943.296,642.084C3942.396,643.217 3941.221,644.109 3939.771,644.759C3938.321,645.409 3936.78,645.734 3935.146,645.734C3932.98,645.734 3931.038,645.284 3929.321,644.384C3927.605,643.484 3926.255,642.151 3925.271,640.384C3924.288,638.617 3923.796,636.484 3923.796,633.984L3923.796,617.784L3929.446,617.784L3929.446,633.134C3929.446,635.601 3930.063,637.492 3931.296,638.809C3932.53,640.126 3934.213,640.784 3936.346,640.784C3938.48,640.784 3940.171,640.126 3941.421,638.809C3942.671,637.492 3943.296,635.601 3943.296,633.134L3943.296,617.784L3948.996,617.784Z" style="fill-rule:nonzero;"/>
            </g>
            <g transform="matrix(7.334552,0,0,21.295803,-27395.838066,-11876.798578)">
                <path d="M3968.196,622.434L3960.146,622.434L3960.146,645.334L3954.396,645.334L3954.396,622.434L3951.146,622.434L3951.146,617.784L3954.396,617.784L3954.396,615.834C3954.396,612.667 3955.238,610.359 3956.921,608.909C3958.605,607.459 3961.246,606.734 3964.846,606.734L3964.846,611.484C3963.113,611.484 3961.896,611.809 3961.196,612.459C3960.496,613.109 3960.146,614.234 3960.146,615.834L3960.146,617.784L3968.196,617.784L3968.196,615.834C3968.196,612.667 3969.038,610.359 3970.721,608.909C3972.405,607.459 3975.046,606.734 3978.646,606.734L3978.646,611.484C3976.913,611.484 3975.696,611.809 3974.996,612.459C3974.296,613.109 3973.946,614.234 3973.946,615.834L3973.946,617.784L3979.046,617.784L3979.046,622.434L3973.946,622.434L3973.946,645.334L3968.196,645.334L3968.196,622.434Z"/>
            </g>
            <g transform="matrix(7.334552,0,0,21.295803,-27395.838066,-11876.798578)">
                <path d="M3984.196,614.134C3983.163,614.134 3982.296,613.784 3981.596,613.084C3980.896,612.384 3980.546,611.517 3980.546,610.484C3980.546,609.451 3980.896,608.584 3981.596,607.884C3982.296,607.184 3983.163,606.834 3984.196,606.834C3985.196,606.834 3986.046,607.184 3986.746,607.884C3987.446,608.584 3987.796,609.451 3987.796,610.484C3987.796,611.517 3987.446,612.384 3986.746,613.084C3986.046,613.784 3985.196,614.134 3984.196,614.134ZM3986.996,617.784L3986.996,645.334L3981.296,645.334L3981.296,617.784L3986.996,617.784Z" style="fill-rule:nonzero;"/>
            </g>
            <g transform="matrix(7.334552,0,0,21.295803,-27395.838066,-11876.798578)">
                <path d="M4005.596,617.334C4007.763,617.334 4009.705,617.784 4011.421,618.684C4013.138,619.584 4014.48,620.917 4015.446,622.684C4016.413,624.451 4016.896,626.584 4016.896,629.084L4016.896,645.334L4011.246,645.334L4011.246,629.934C4011.246,627.467 4010.63,625.576 4009.396,624.259C4008.163,622.942 4006.48,622.284 4004.346,622.284C4002.213,622.284 4000.521,622.942 3999.271,624.259C3998.021,625.576 3997.396,627.467 3997.396,629.934L3997.396,645.334L3991.696,645.334L3991.696,617.784L3997.396,617.784L3997.396,620.934C3998.33,619.801 3999.521,618.917 4000.971,618.284C4002.421,617.651 4003.963,617.334 4005.596,617.334Z" style="fill-rule:nonzero;"/>
            </g>
            <g transform="matrix(7.334552,0,0,21.295803,-27395.838066,-11876.798578)">
                <path d="M4033.296,645.784C4030.696,645.784 4028.346,645.192 4026.246,644.009C4024.146,642.826 4022.496,641.159 4021.296,639.009C4020.096,636.859 4019.496,634.367 4019.496,631.534C4019.496,628.734 4020.113,626.251 4021.346,624.084C4022.58,621.917 4024.263,620.251 4026.396,619.084C4028.53,617.917 4030.913,617.334 4033.546,617.334C4036.18,617.334 4038.563,617.917 4040.696,619.084C4042.83,620.251 4044.513,621.917 4045.746,624.084C4046.98,626.251 4047.596,628.734 4047.596,631.534C4047.596,634.334 4046.963,636.817 4045.696,638.984C4044.43,641.151 4042.705,642.826 4040.521,644.009C4038.338,645.192 4035.93,645.784 4033.296,645.784ZM4033.296,640.834C4034.763,640.834 4036.138,640.484 4037.421,639.784C4038.705,639.084 4039.746,638.034 4040.546,636.634C4041.346,635.234 4041.746,633.534 4041.746,631.534C4041.746,629.534 4041.363,627.842 4040.596,626.459C4039.83,625.076 4038.813,624.034 4037.546,623.334C4036.28,622.634 4034.913,622.284 4033.446,622.284C4031.98,622.284 4030.621,622.634 4029.371,623.334C4028.121,624.034 4027.13,625.076 4026.396,626.459C4025.663,627.842 4025.296,629.534 4025.296,631.534C4025.296,634.501 4026.055,636.792 4027.571,638.409C4029.088,640.026 4030.996,640.834 4033.296,640.834Z" style="fill-rule:nonzero;"/>
            </g>
            <g transform="matrix(7.334552,0,0,21.295803,-27395.838066,-11876.798578)">
                <path d="M4085.796,620.584C4084.896,618.851 4083.646,617.542 4082.046,616.659C4080.446,615.776 4078.596,615.334 4076.496,615.334C4074.196,615.334 4072.146,615.851 4070.346,616.884C4068.546,617.917 4067.138,619.384 4066.121,621.284C4065.105,623.184 4064.596,625.384 4064.596,627.884C4064.596,630.384 4065.105,632.592 4066.121,634.509C4067.138,636.426 4068.546,637.901 4070.346,638.934C4072.146,639.967 4074.196,640.484 4076.496,640.484C4079.596,640.484 4082.113,639.617 4084.046,637.884C4085.98,636.151 4087.163,633.801 4087.596,630.834L4074.546,630.834L4074.546,626.284L4093.696,626.284L4093.696,630.734C4093.33,633.434 4092.371,635.917 4090.821,638.184C4089.271,640.451 4087.255,642.259 4084.771,643.609C4082.288,644.959 4079.53,645.634 4076.496,645.634C4073.23,645.634 4070.246,644.876 4067.546,643.359C4064.846,641.842 4062.705,639.734 4061.121,637.034C4059.538,634.334 4058.746,631.284 4058.746,627.884C4058.746,624.484 4059.538,621.434 4061.121,618.734C4062.705,616.034 4064.855,613.926 4067.571,612.409C4070.288,610.892 4073.263,610.134 4076.496,610.134C4080.196,610.134 4083.488,611.042 4086.371,612.859C4089.255,614.676 4091.346,617.251 4092.646,620.584L4085.796,620.584Z" style="fill-rule:nonzero;"/>
            </g>
            <g transform="matrix(7.334552,0,0,21.295803,-27395.838066,-11876.798578)">
                <path d="M4102.196,621.784C4103.03,620.384 4104.138,619.292 4105.521,618.509C4106.905,617.726 4108.546,617.334 4110.446,617.334L4110.446,623.234L4108.996,623.234C4106.763,623.234 4105.071,623.801 4103.921,624.934C4102.771,626.067 4102.196,628.034 4102.196,630.834L4102.196,645.334L4096.496,645.334L4096.496,617.784L4102.196,617.784L4102.196,621.784Z" style="fill-rule:nonzero;"/>
            </g>
            <g transform="matrix(7.334552,0,0,21.295803,-27395.838066,-11876.798578)">
                <path d="M4124.846,645.784C4122.246,645.784 4119.896,645.192 4117.796,644.009C4115.696,642.826 4114.046,641.159 4112.846,639.009C4111.646,636.859 4111.046,634.367 4111.046,631.534C4111.046,628.734 4111.663,626.251 4112.896,624.084C4114.13,621.917 4115.813,620.251 4117.946,619.084C4120.08,617.917 4122.463,617.334 4125.096,617.334C4127.73,617.334 4130.113,617.917 4132.246,619.084C4134.38,620.251 4136.063,621.917 4137.296,624.084C4138.53,626.251 4139.146,628.734 4139.146,631.534C4139.146,634.334 4138.513,636.817 4137.246,638.984C4135.98,641.151 4134.255,642.826 4132.071,644.009C4129.888,645.192 4127.48,645.784 4124.846,645.784ZM4124.846,640.834C4126.313,640.834 4127.688,640.484 4128.971,639.784C4130.255,639.084 4131.296,638.034 4132.096,636.634C4132.896,635.234 4133.296,633.534 4133.296,631.534C4133.296,629.534 4132.913,627.842 4132.146,626.459C4131.38,625.076 4130.363,624.034 4129.096,623.334C4127.83,622.634 4126.463,622.284 4124.996,622.284C4123.53,622.284 4122.171,622.634 4120.921,623.334C4119.671,624.034 4118.68,625.076 4117.946,626.459C4117.213,627.842 4116.846,629.534 4116.846,631.534C4116.846,634.501 4117.605,636.792 4119.121,638.409C4120.638,640.026 4122.546,640.834 4124.846,640.834Z" style="fill-rule:nonzero;"/>
            </g>
            <g transform="matrix(7.334552,0,0,21.295803,-27395.838066,-11876.798578)">
                <path d="M4166.946,617.784L4166.946,645.334L4161.246,645.334L4161.246,642.084C4160.346,643.217 4159.171,644.109 4157.721,644.759C4156.271,645.409 4154.73,645.734 4153.096,645.734C4150.93,645.734 4148.988,645.284 4147.271,644.384C4145.555,643.484 4144.205,642.151 4143.221,640.384C4142.238,638.617 4141.746,636.484 4141.746,633.984L4141.746,617.784L4147.396,617.784L4147.396,633.134C4147.396,635.601 4148.013,637.492 4149.246,638.809C4150.48,640.126 4152.163,640.784 4154.296,640.784C4156.43,640.784 4158.121,640.126 4159.371,638.809C4160.621,637.492 4161.246,635.601 4161.246,633.134L4161.246,617.784L4166.946,617.784Z" style="fill-rule:nonzero;"/>
            </g>
            <g transform="matrix(7.334552,0,0,21.295803,-27401.042951,-11876.798578)">
                <path d="M4177.346,621.834C4178.313,620.567 4179.63,619.501 4181.296,618.634C4182.963,617.767 4184.846,617.334 4186.946,617.334C4189.346,617.334 4191.538,617.926 4193.521,619.109C4195.505,620.292 4197.063,621.951 4198.196,624.084C4199.33,626.217 4199.896,628.667 4199.896,631.434C4199.896,634.201 4199.33,636.676 4198.196,638.859C4197.063,641.042 4195.505,642.742 4193.521,643.959C4191.538,645.176 4189.346,645.784 4186.946,645.784C4184.846,645.784 4182.98,645.359 4181.346,644.509C4179.713,643.659 4178.38,642.601 4177.346,641.334L4177.346,658.434L4171.646,658.434L4171.646,617.784L4177.346,617.784L4177.346,621.834ZM4194.096,631.434C4194.096,629.534 4193.705,627.892 4192.921,626.509C4192.138,625.126 4191.105,624.076 4189.821,623.359C4188.538,622.642 4187.163,622.284 4185.696,622.284C4184.263,622.284 4182.905,622.651 4181.621,623.384C4180.338,624.117 4179.305,625.184 4178.521,626.584C4177.738,627.984 4177.346,629.634 4177.346,631.534C4177.346,633.434 4177.738,635.092 4178.521,636.509C4179.305,637.926 4180.338,639.001 4181.621,639.734C4182.905,640.467 4184.263,640.834 4185.696,640.834C4187.163,640.834 4188.538,640.459 4189.821,639.709C4191.105,638.959 4192.138,637.867 4192.921,636.434C4193.705,635.001 4194.096,633.334 4194.096,631.434Z" style="fill-rule:nonzero;"/>
            </g>
            <g transform="matrix(1.734962,0,0,5.037445,-1571.412174,-4936.391047)">
                <g transform="matrix(0.423119,0,-0,0.423119,1020.308543,518.958051)">
                    <rect x="708" y="1618" width="347" height="347"/>
                </g>
                <g transform="matrix(-0.59838,-0,-0,0.423119,1596.707683,518.958051)">
                    <path d="M708,1965L462.634,1618L636.134,1372.634L809.634,1618L1055,1618L1055,1965L708,1965Z" style="fill:rgb(210,0,0);"/>
                </g>
            </g>
        </g>
    </g>
</svg>
